# xmcd
# Track frame offsets:
# 150
# 15742
# 28995
# 44815
# 60232
# 77482
# 94440
# 107840
# 121915
# 138147
#
# Disc length: 2051 seconds
# Revision: 0
# Processed by: cddbd v1.4PL0 Copyright (c) Steve Scherf et al.
# Submitted via: VisiTrax 2.9.5.180 - For more info visit www.synapsa.com
#
DISCID=8108010a
DTITLE=Tara Wilder - Little things
DYEAR=1999
DGENRE=
TTITLE0=Take my hand
TTITLE1=Kissed my heart goodbye
TTITLE2=In my mother's eyes
TTITLE3=It's those little things
TTITLE4=Little boys aren't little for long
TTITLE5=Now and forever
TTITLE6=Talkin' bout my little girl
TTITLE7=Here in my heart
TTITLE8=I wanna be there
TTITLE9=Can we ever find peace
EXTD=
EXTT0=
EXTT1=
EXTT2=
EXTT3=
EXTT4=
EXTT5=
EXTT6=
EXTT7=
EXTT8=
EXTT9=
PLAYORDER=
